<svg xmlns="http://www.w3.org/2000/svg" xmlns:xlink="http://www.w3.org/1999/xlink" width="50" zoomAndPan="magnify" viewBox="0 0 37.5 37.499999" height="50" preserveAspectRatio="xMidYMid meet" version="1.0"><defs><g/></defs><path fill="#febe98" d="M 36.746094 19.117188 C 36.761719 18.519531 36.753906 17.921875 36.710938 17.324219 C 36.671875 16.730469 36.601562 16.136719 36.5 15.546875 C 36.402344 14.960938 36.273438 14.375 36.117188 13.800781 C 35.960938 13.222656 35.777344 12.65625 35.566406 12.097656 C 35.351562 11.539062 35.113281 10.992188 34.847656 10.457031 C 34.582031 9.921875 34.289062 9.402344 33.972656 8.894531 C 33.65625 8.390625 33.316406 7.898438 32.949219 7.425781 C 32.585938 6.953125 32.199219 6.5 31.789062 6.066406 C 31.378906 5.632812 30.949219 5.21875 30.5 4.824219 C 30.046875 4.433594 29.578125 4.0625 29.09375 3.714844 C 28.605469 3.371094 28.105469 3.046875 27.585938 2.75 C 27.066406 2.453125 26.535156 2.183594 25.992188 1.9375 C 25.445312 1.691406 24.890625 1.476562 24.324219 1.285156 C 23.757812 1.09375 23.183594 0.933594 22.601562 0.796875 C 22.019531 0.664062 21.433594 0.558594 20.839844 0.484375 C 20.246094 0.40625 19.652344 0.359375 19.054688 0.34375 C 18.457031 0.324219 17.863281 0.335938 17.265625 0.375 C 16.671875 0.417969 16.078125 0.488281 15.488281 0.585938 C 14.898438 0.683594 14.316406 0.8125 13.738281 0.96875 C 13.164062 1.125 12.597656 1.308594 12.039062 1.523438 C 11.480469 1.734375 10.933594 1.972656 10.398438 2.238281 C 9.863281 2.503906 9.339844 2.796875 8.835938 3.113281 C 8.328125 3.429688 7.839844 3.769531 7.367188 4.132812 C 6.894531 4.5 6.4375 4.886719 6.003906 5.296875 C 5.570312 5.707031 5.15625 6.136719 4.761719 6.585938 C 4.371094 7.035156 4 7.503906 3.652344 7.992188 C 3.308594 8.476562 2.984375 8.980469 2.6875 9.496094 C 2.390625 10.015625 2.121094 10.546875 1.875 11.09375 C 1.628906 11.636719 1.410156 12.191406 1.222656 12.757812 C 1.03125 13.324219 0.867188 13.898438 0.734375 14.480469 C 0.601562 15.0625 0.496094 15.648438 0.417969 16.242188 C 0.34375 16.835938 0.292969 17.429688 0.277344 18.027344 C 0.257812 18.625 0.269531 19.222656 0.3125 19.816406 C 0.351562 20.414062 0.421875 21.003906 0.519531 21.59375 C 0.617188 22.183594 0.746094 22.765625 0.902344 23.34375 C 1.058594 23.917969 1.242188 24.488281 1.453125 25.046875 C 1.664062 25.605469 1.90625 26.152344 2.171875 26.6875 C 2.4375 27.222656 2.726562 27.742188 3.042969 28.25 C 3.359375 28.753906 3.699219 29.246094 4.066406 29.71875 C 4.429688 30.191406 4.816406 30.644531 5.226562 31.078125 C 5.636719 31.515625 6.066406 31.929688 6.515625 32.320312 C 6.964844 32.714844 7.433594 33.085938 7.921875 33.429688 C 8.40625 33.777344 8.910156 34.101562 9.425781 34.398438 C 9.945312 34.695312 10.476562 34.964844 11.023438 35.210938 C 11.566406 35.457031 12.121094 35.675781 12.6875 35.863281 C 13.253906 36.054688 13.828125 36.21875 14.410156 36.351562 C 14.992188 36.488281 15.578125 36.59375 16.171875 36.667969 C 16.765625 36.746094 17.359375 36.792969 17.957031 36.8125 C 18.554688 36.828125 19.152344 36.816406 19.746094 36.777344 C 20.34375 36.738281 20.9375 36.667969 21.527344 36.570312 C 22.117188 36.46875 22.699219 36.34375 23.277344 36.1875 C 23.851562 36.03125 24.421875 35.847656 24.980469 35.632812 C 25.539062 35.421875 26.085938 35.183594 26.621094 34.917969 C 27.15625 34.652344 27.679688 34.359375 28.183594 34.042969 C 28.691406 33.726562 29.183594 33.386719 29.65625 33.019531 C 30.128906 32.65625 30.582031 32.265625 31.019531 31.859375 C 31.453125 31.449219 31.867188 31.015625 32.261719 30.566406 C 32.652344 30.117188 33.023438 29.648438 33.371094 29.160156 C 33.714844 28.671875 34.039062 28.171875 34.335938 27.652344 C 34.632812 27.132812 34.90625 26.601562 35.148438 26.054688 C 35.394531 25.511719 35.613281 24.957031 35.804688 24.390625 C 35.992188 23.820312 36.15625 23.246094 36.289062 22.664062 C 36.425781 22.082031 36.527344 21.496094 36.605469 20.902344 C 36.679688 20.308594 36.726562 19.714844 36.746094 19.117188 Z M 12.964844 28.132812 L 21.332031 18.570312 L 12.964844 9.003906 L 14.917969 7.285156 L 24.796875 18.570312 L 14.917969 29.851562 Z M 12.964844 28.132812 " fill-opacity="1" fill-rule="nonzero"/></svg>